# xmcd
#
# Track frame offsets:
#	150
#	18490
#	37320
#	56583
#	73685
#	89364
#	101289
#	117055
#	131707
#	145915
#	160760
#	178868
#	196276
#	214431
#	233373
#	250456
#	266374
#
# Disc length: 3694
#
# Revision: 2
# Processed by: cddbd v1.5.1PL0 Copyright (c) Steve Scherf et al.
# Submitted via: VOLTOCDX V1.0.24 
# Normalized: r1:TSWAP
#
DISCID=f50e6c11
DTITLE=Various Artist - Music Maestro Country Hits IV - Disc 2
DYEAR=2004
DGENRE=Karaoke
TTITLE0=Gary Allan - Tough Little Boys
TTITLE1=Kellie Coffey - When You Lie Next To Me
TTITLE2=Tim McGraw - Red Ragtop
TTITLE3=Chris Cagle - What A Beautiful Day
TTITLE4=Brooks - Dunn - You Can't Take The Honky Tonk Out Of The Girl
TTITLE5=Dwight Yoakam - Crazy Little Thing Called Love
TTITLE6=Mark Chesnutt - She Was
TTITLE7=George Strait - She'll Leave You With A Smile
TTITLE8=Tracy Byrd - Ten Rounds With Jose Cuervo
TTITLE9=Brian McComas - 99.9% Sure
TTITLE10=Brooks - Dunn - Long Goodbye
TTITLE11=Sixwire - Way Too Deep
TTITLE12=Jo Dee Messina - Burn
TTITLE13=Alan Jackson - Drive
TTITLE14=Leann Rimes - You Light Up My Life
TTITLE15=Terri Clark - I Just Wanna Be Mad
TTITLE16=Tracy Byrd - Drinkin' Bone
EXTD=
EXTT0=
EXTT1=
EXTT2=
EXTT3=
EXTT4=
EXTT5=
EXTT6=
EXTT7=
EXTT8=
EXTT9=
EXTT10=
EXTT11=
EXTT12=
EXTT13=
EXTT14=
EXTT15=
EXTT16=
PLAYORDER=
